<?xml version="1.0" encoding="UTF-8"?>
<!DOCTYPE svg PUBLIC "-//W3C//DTD SVG 1.1//EN" "http://www.w3.org/Graphics/SVG/1.1/DTD/svg11.dtd">
<!-- Creator: CorelDRAW X6 -->
<svg xmlns="http://www.w3.org/2000/svg" xml:space="preserve" width="82.0317mm" height="118.412mm" version="1.1" style="shape-rendering:geometricPrecision; text-rendering:geometricPrecision; image-rendering:optimizeQuality; fill-rule:evenodd; clip-rule:evenodd"
viewBox="0 0 3547 5120"
 xmlns:xlink="http://www.w3.org/1999/xlink">
 <defs>
  <style type="text/css">
   <![CDATA[
    .fil1 {fill:#FEFEFE}
    .fil0 {fill:#EB6923}
   ]]>
  </style>
 </defs>
 <g id="Слой_x0020_1">
  <metadata id="CorelCorpID_0Corel-Layer"/>
  <g id="_692772416">
   <path class="fil0" d="M2181 395l-408 -395 -408 395 -1365 0 0 3610c0,392 119,498 331,620 79,45 168,80 255,108 170,56 574,127 811,195 242,70 376,191 376,191 0,0 134,-121 376,-191 237,-68 641,-139 811,-195 87,-29 175,-63 255,-108 213,-121 331,-228 331,-620l0 -3610 -1365 0z"/>
   <path class="fil1" d="M1409 982c0,0 -278,75 -289,196 0,0 -222,-68 -372,151 0,0 -20,32 -106,108 0,0 -127,80 6,220 0,0 64,70 229,68 0,0 -19,142 -77,230 0,0 -36,128 -7,262 0,0 -172,-5 -195,147 0,0 -13,83 65,138 0,0 11,-34 35,-17 0,0 -9,-118 67,-116 0,0 57,1 124,125 0,0 63,92 135,20 0,0 86,78 -59,319 -145,242 -23,457 20,518 0,0 0,15 -34,52 -2,3 -4,6 -5,10 -1,11 -1,35 21,66 1,1 2,2 3,1 8,-2 54,-10 304,-22 0,0 -9,8 -14,15 -1,1 0,3 2,3 18,-1 104,-8 163,-14 0,0 92,-6 165,-8 0,0 6,-43 26,-77l87 7c0,0 524,-422 644,-466 0,0 444,-247 535,-401 0,0 333,-335 113,-1013 0,0 -124,-475 -596,-525 0,0 -444,-97 -626,203 0,0 -171,244 4,560 0,0 98,193 311,184 0,0 -106,-146 4,-299 0,0 96,-102 310,-21 0,0 217,94 93,576 0,0 -42,212 -318,434 0,0 -187,124 -213,176 0,0 -15,-218 -176,-486 0,0 -36,-83 -127,-212 0,0 -212,-349 -293,-566 0,0 -6,-139 -55,-205 0,0 122,6 96,-342z"/>
   <path class="fil1" d="M1969 3875l-66 0 0 472 66 0 0 -111 47 -51 123 162 76 0 0 -6 -157 -202 147 -157 -80 0 -101 108 -56 67 0 -282zm-148 0l-66 0 0 472 66 0 0 -472zm-438 251c14,-65 67,-91 121,-91 53,0 105,26 117,91l-238 0zm308 23c-7,-115 -96,-172 -187,-172 -96,0 -190,63 -190,188 0,126 94,189 188,189 75,0 150,-40 177,-119l-68 0c-22,41 -63,61 -109,61 -55,0 -123,-43 -123,-115l309 0c2,-9 3,-21 1,-32zm-694 -18l146 0c46,0 69,38 69,75 0,37 -23,76 -69,76l-146 0 0 -150zm-67 -260l0 476 213 0c90,0 137,-72 137,-142 0,-45 -20,-94 -74,-117 92,-69 41,-217 -80,-217l-196 0zm67 65l129 0c79,0 73,128 -1,128l-128 0 0 -128zm1568 229c0,86 -67,129 -128,130 -84,2 -133,-61 -133,-132 0,-72 48,-128 128,-129 62,-1 133,43 133,130zm0 -182l1 49c-32,-44 -87,-55 -132,-55 -123,0 -195,88 -195,187 0,101 69,190 196,190 45,-1 104,-16 130,-55l0 49 66 0 0 -365 -66 0z"/>
  </g>
 </g>
</svg>
