<svg width="230" height="230" xmlns="http://www.w3.org/2000/svg">
 <defs>
  <style type="text/css">
   <![CDATA[
    .fil1 {fill:#FEFEFE}
   ]]>
  </style>
 </defs>
 <g>
  <title>background</title>
  <rect fill="none" id="canvas_background" height="232" width="232" y="-1" x="-1"/>
 </g>
 <g>
  <title>Layer 1</title>
  <g stroke="null" id="Слой_x0020_1">
   <metadata stroke="null" transform="translate(-11.249972343444824,-13.74996566772461) translate(0,-1.2499969005584717) translate(59.99985122680664,63.749839782714844) translate(0,1.610563771237139e-8) translate(0,1) translate(0,1) translate(0,-1.1920928955078125e-7) translate(0,1.000000238418579) translate(0,1) translate(0,1) translate(0,1.2911624908447266) translate(4.6105832041121175e-8,0) translate(1,0) translate(-1.1920928955078125e-7,0) translate(1.0830631256103516,0) translate(4.999988079071045,2.4999940395355225) translate(-1.2499970197677612,0) translate(-134.99966430664062,-121.24970245361328) translate(-83.74979400634766,-41.24989700317383) translate(91.24977111816406,71.24982452392578) translate(-2526.66748046875,-3193.33447265625) translate(3215,3821.261474609375) scale(0.20987625420093536) translate(-3215,-3821.261474609375) translate(-33.74870300292969,-41.887332916259766) scale(0.4088241457939148) translate(33.74870300292969,41.887332916259766) translate(2.2737367544323206e-13,4.547473508864641e-13) scale(0.4550374150276184) translate(-2.2737367544323206e-13,-4.547473508864641e-13) translate(1536.75,1600.78125) scale(1.3320138454437256) translate(-1536.75,-1600.78125) " id="CorelCorpID_0Corel-Layer"/>
   <g stroke="null" id="_692772416">
    <path stroke="#000" fill="#fff" id="svg_2" d="m95.243482,53.950504c0,0 -14.457742,3.90047 -15.029811,10.193229c0,0 -11.545391,-3.536426 -19.346332,7.852946c0,0 -1.040125,1.664201 -5.512664,5.616677c0,0 -6.604796,4.160501 0.312038,11.441379c0,0 3.328401,3.640439 11.909435,3.536426c0,0 -0.988119,7.38489 -4.004483,11.961442c0,0 -1.872226,6.656802 -0.364044,13.625642c0,0 -8.945078,-0.260031 -10.141222,7.644921c0,0 -0.676081,4.31652 3.380407,7.176865c0,0 0.572069,-1.768213 1.820219,-0.884107c0,0 -0.468056,-6.13674 3.48442,-6.032727c0,0 2.964357,0.052006 6.448777,6.500783c0,0 3.276395,4.784577 7.020846,1.040125c0,0 4.472539,4.056489 -3.06837,16.589999c-7.540909,12.585517 -1.196144,23.766864 1.040125,26.939247c0,0 0,0.780094 -1.768213,2.704326c-0.104013,0.156019 -0.208025,0.312038 -0.260031,0.520063c-0.052006,0.572069 -0.052006,1.820219 1.092132,3.432414c0.052006,0.052006 0.104013,0.104013 0.156019,0.052006c0.41605,-0.104013 2.808338,-0.520063 15.809905,-1.144138c0,0 -0.468056,0.41605 -0.728088,0.780094c-0.052006,0.052006 0,0.156019 0.104013,0.156019c0.936113,-0.052006 5.408652,-0.41605 8.477022,-0.728088c0,0 4.784577,-0.312038 8.581034,-0.41605c0,0 0.312038,-2.23627 1.352163,-4.004483l4.524545,0.364044c0,0 27.251284,-21.946645 33.492037,-24.234921c0,0 23.090783,-12.845548 27.823353,-20.854513c0,0 17.318087,-17.4221 5.876708,-52.682349c0,0 -6.448777,-24.702977 -30.995736,-27.303291c0,0 -23.090783,-5.044608 -32.555924,10.557272c0,0 -8.893072,12.689529 0.208025,29.12351c0,0 5.096614,10.03721 16.173949,9.569153c0,0 -5.512664,-7.592915 0.208025,-15.549874c0,0 4.992602,-5.304639 16.121943,-1.092132c0,0 11.28536,4.888589 4.836583,29.95561c0,0 -2.184263,11.025329 -16.537993,22.57072c0,0 -9.725172,6.448777 -11.077335,9.153103c0,0 -0.780094,-11.337366 -9.153103,-25.275046c0,0 -1.872226,-4.31652 -6.604796,-11.025329c0,0 -11.025329,-18.150188 -15.237837,-29.435548c0,0 -0.312038,-7.228871 -2.860345,-10.661285c0,0 6.344765,0.312038 4.992602,-17.786144l0,0.052006z" class="fil1"/>
   </g>
  </g>
 </g>
</svg>