<svg width="3547" height="5120" xmlns="http://www.w3.org/2000/svg">
 <defs>
  <style type="text/css">
   <![CDATA[
    .fil1 {fill:#FEFEFE}
    .fil0 {fill:#EB6923}
   ]]>
  </style>
 </defs>
 <g>
  <title>background</title>
  <rect x="-1" y="-1" width="23648.674549" height="34135.344711" id="canvas_background" fill="none"/>
 </g>
 <g>
  <title>Layer 1</title>
  <g id="Слой_x0020_1">
   <metadata id="CorelCorpID_0Corel-Layer"/>
   <g id="_692772416">
    <path class="fil0" d="m2181,395l-408,-395l-408,395l-1365,0l0,3610c0,392 119,498 331,620c79,45 168,80 255,108c170,56 574,127 811,195c242,70 376,191 376,191c0,0 134,-121 376,-191c237,-68 641,-139 811,-195c87,-29 175,-63 255,-108c213,-121 331,-228 331,-620l0,-3610l-1365,0z" id="svg_1" fill="#fff" stroke="#000"/>
    <path class="fil1" d="m1409,1322.261475c0,0 -278,75 -289,196c0,0 -222,-68 -372,151c0,0 -20,32 -106,108c0,0 -127,80 6,220c0,0 64,70 229,68c0,0 -19,142 -77,230c0,0 -36,128 -7,262c0,0 -172,-5 -195,147c0,0 -13,83 65,138c0,0 11,-34 35,-17c0,0 -9,-118 67,-116c0,0 57,1 124,125c0,0 63,92 135,20c0,0 86,78 -59,319c-145,242 -23,457 20,518c0,0 0,15 -34,52c-2,3 -4,6 -5,10c-1,11 -1,35 21,66c1,1 2,2 3,1c8,-2 54,-10 304,-22c0,0 -9,8 -14,15c-1,1 0,3 2,3c18,-1 104,-8 163,-14c0,0 92,-6 165,-8c0,0 6,-43 26,-77l87,7c0,0 524,-422 644,-466c0,0 444,-247 535,-401c0,0 333,-335 113,-1013c0,0 -124,-475 -596,-525c0,0 -444,-97 -626,203c0,0 -171,244 4,560c0,0 98,193 311,184c0,0 -106,-146 4,-299c0,0 96,-102 310,-21c0,0 217,94 93,576c0,0 -42,212 -318,434c0,0 -187,124 -213,176c0,0 -15,-218 -176,-486c0,0 -36,-83 -127,-212c0,0 -212,-349 -293,-566c0,0 -6,-139 -55,-205c0,0 122,6 96,-342l0,1z" id="svg_2" fill="#fff" stroke="#000"/>
   </g>
  </g>
 </g>
</svg>
