<?xml version="1.0" standalone="no"?>
<!DOCTYPE svg PUBLIC "-//W3C//DTD SVG 20010904//EN"
 "http://www.w3.org/TR/2001/REC-SVG-20010904/DTD/svg10.dtd">
<svg version="1.0" xmlns="http://www.w3.org/2000/svg"
 width="5120.000000pt" height="5120.000000pt" viewBox="0 0 5120.000000 5120.000000"
 preserveAspectRatio="xMidYMid meet">
<metadata>
Created by potrace 1.11, written by Peter Selinger 2001-2013
</metadata>
<g transform="translate(0.000000,5120.000000) scale(0.100000,-0.100000)"
fill="#000000" stroke="none">
<path d="M23565 49215 l-2040 -1975 -6822 0 -6823 0 0 -18294 c0 -12290 3
-18369 10 -18523 70 -1564 353 -2650 912 -3497 171 -259 323 -442 567 -686
338 -337 700 -615 1261 -967 910 -571 1734 -954 2885 -1338 824 -276 1578
-466 3725 -939 437 -96 968 -213 1180 -260 2196 -484 3312 -768 4075 -1037
1134 -400 2206 -974 2992 -1601 61 -50 115 -90 118 -90 3 0 57 40 118 90 683
545 1615 1068 2582 1449 890 350 1939 629 4485 1189 212 47 743 164 1180 260
2656 585 3400 788 4542 1239 816 323 1363 597 2093 1050 1070 664 1683 1291
2091 2140 371 771 566 1707 624 3000 6 144 10 6568 10 18518 l0 18297 -6822 0
-6823 0 -2000 1936 c-1100 1065 -2018 1953 -2040 1975 l-40 39 -2040 -1975z
m6980 -11075 c481 -20 773 -50 1255 -129 69 -11 211 -32 315 -47 864 -119
1704 -411 2425 -844 1145 -687 2102 -1754 2769 -3089 163 -325 291 -622 398
-921 52 -145 210 -652 288 -921 722 -2495 770 -4849 139 -6890 -211 -684 -511
-1348 -869 -1920 -154 -246 -355 -521 -505 -689 -37 -41 -89 -109 -115 -150
-373 -582 -1332 -1404 -2770 -2372 -652 -439 -1318 -856 -2050 -1283 -402
-235 -437 -254 -665 -364 -521 -251 -1541 -948 -3095 -2115 -699 -524 -1871
-1433 -2739 -2123 -230 -183 -427 -333 -438 -333 -27 0 -753 58 -809 65 l-46
5 -60 -127 c-33 -71 -77 -177 -97 -238 -37 -114 -96 -349 -96 -384 0 -23 -37
-27 -325 -36 -579 -18 -1210 -57 -1850 -115 -694 -62 -1101 -94 -1120 -86 -8
3 -15 9 -15 14 0 4 32 43 71 85 l71 77 -59 -5 c-32 -3 -200 -12 -373 -20
-1257 -61 -2330 -142 -2613 -198 -6 -1 -28 23 -49 53 -99 145 -162 309 -180
474 -17 147 -5 181 107 311 154 181 275 371 275 434 0 13 -35 78 -79 145 -345
532 -603 1174 -720 1791 -68 357 -86 579 -78 964 11 542 96 980 292 1496 108
283 196 464 410 835 323 561 491 914 629 1320 109 319 164 575 187 860 25 311
-30 628 -143 830 -37 66 -90 139 -102 140 -4 0 -31 -21 -60 -46 -161 -146
-331 -218 -511 -218 -125 0 -198 18 -330 83 -220 109 -376 262 -520 511 -189
327 -352 547 -555 750 -158 158 -260 236 -396 305 -127 63 -211 81 -312 67
-104 -15 -178 -43 -251 -97 -139 -103 -239 -289 -291 -545 -21 -104 -40 -308
-40 -430 l0 -78 -37 19 c-49 25 -128 25 -169 0 -39 -24 -81 -75 -115 -141
l-26 -51 -55 43 c-300 235 -480 514 -564 873 -25 108 -28 139 -28 305 -1 168
2 196 26 298 93 390 293 702 588 919 128 94 199 135 339 198 266 119 548 186
899 211 59 4 92 10 92 18 0 6 -9 58 -20 115 -134 704 -112 1547 61 2344 28
130 34 144 95 245 292 479 541 1229 685 2057 10 61 19 118 19 128 0 15 -14 17
-147 17 -148 0 -428 20 -578 40 -693 95 -1285 346 -1595 677 -368 392 -570
812 -570 1183 0 182 39 334 130 508 87 166 211 312 370 437 192 151 740 679
933 898 48 54 141 174 208 265 182 249 275 359 469 552 196 197 328 306 540
448 456 305 964 486 1525 543 169 17 555 14 720 -6 122 -14 326 -49 406 -70
25 -6 26 -5 33 47 11 83 44 181 95 282 257 505 1027 1009 2178 1426 171 62
570 190 593 190 15 0 19 -25 31 -222 18 -287 18 -1045 1 -1263 -57 -698 -186
-1180 -407 -1521 -135 -209 -345 -367 -516 -390 -27 -4 -49 -8 -49 -11 0 -2
17 -30 38 -61 156 -232 290 -598 381 -1034 53 -256 102 -603 117 -838 7 -101
10 -113 90 -317 357 -912 1021 -2248 1867 -3758 519 -927 927 -1618 1127
-1909 418 -610 761 -1180 1035 -1721 66 -132 175 -334 241 -450 415 -721 775
-1502 1044 -2260 214 -605 373 -1179 474 -1720 36 -192 86 -527 86 -577 0 -38
11 -35 37 11 12 21 58 81 102 133 256 305 916 833 1815 1452 448 309 1093 897
1605 1466 788 874 1411 1893 1691 2765 40 124 157 603 211 858 239 1146 296
2142 169 2967 -118 766 -383 1374 -791 1814 -127 137 -337 300 -453 351 -73
32 -368 128 -521 170 -526 143 -1069 180 -1515 104 -384 -65 -746 -219 -998
-422 -131 -106 -337 -472 -441 -785 -93 -279 -125 -501 -118 -822 5 -244 20
-355 78 -590 66 -265 220 -625 345 -809 13 -19 22 -36 20 -38 -2 -2 -82 -4
-177 -4 -626 0 -1255 204 -1789 579 -250 176 -588 496 -784 742 -176 222 -278
378 -418 645 -396 754 -609 1447 -700 2280 -20 190 -18 809 5 1015 66 600 203
1116 437 1645 150 340 402 744 641 1031 690 828 1692 1360 2967 1575 516 87
1076 121 1617 99z"/>
</g>
</svg>
