<?xml version="1.0" standalone="no"?>
<!DOCTYPE svg PUBLIC "-//W3C//DTD SVG 20010904//EN"
 "http://www.w3.org/TR/2001/REC-SVG-20010904/DTD/svg10.dtd">
<svg version="1.0" xmlns="http://www.w3.org/2000/svg"
 width="5120.000000pt" height="5120.000000pt" viewBox="0 0 5120.000000 5120.000000"
 preserveAspectRatio="xMidYMid meet">
<metadata>
Created by potrace 1.11, written by Peter Selinger 2001-2013
</metadata>
<g transform="translate(0.000000,5120.000000) scale(0.100000,-0.100000)"
fill="#000000" stroke="none">
<path d="M23565 49215 l-2040 -1975 -6822 0 -6823 0 0 -18292 c0 -12008 4
-18370 10 -18518 70 -1569 353 -2658 912 -3504 172 -260 323 -443 567 -686
338 -337 700 -615 1261 -967 910 -571 1734 -954 2885 -1338 496 -166 817 -259
1445 -415 590 -147 1181 -282 2880 -656 3179 -700 4113 -942 5065 -1317 964
-379 1899 -904 2582 -1449 61 -50 115 -90 118 -90 3 0 57 40 118 90 683 545
1618 1070 2582 1449 952 375 1886 617 5065 1317 1699 374 2290 509 2880 656
902 225 1498 413 2262 715 812 321 1365 599 2088 1047 1075 667 1689 1295
2096 2144 372 775 568 1721 624 3004 7 157 10 6285 10 18522 l0 18288 -6823 0
-6822 0 -1995 1931 c-1097 1062 -2015 1950 -2040 1975 l-45 44 -2040 -1975z
m6985 -11075 c417 -17 839 -58 1130 -110 63 -11 212 -33 330 -50 713 -98 1267
-250 1850 -507 1435 -633 2648 -1842 3446 -3434 166 -333 295 -631 400 -927
54 -151 213 -660 288 -917 643 -2228 753 -4326 326 -6204 -218 -957 -578
-1848 -1055 -2612 -154 -246 -355 -521 -505 -689 -37 -41 -89 -109 -115 -150
-139 -217 -390 -501 -679 -769 -751 -695 -1925 -1538 -3416 -2453 -526 -323
-1170 -697 -1273 -739 -705 -291 -2992 -1942 -5970 -4312 -219 -174 -408 -317
-418 -317 -28 0 -754 58 -810 65 l-46 5 -60 -127 c-33 -71 -77 -177 -97 -238
-37 -114 -96 -349 -96 -384 0 -23 -37 -27 -325 -36 -579 -18 -1221 -58 -1850
-115 -674 -61 -1100 -94 -1120 -86 -8 3 -15 9 -15 14 0 4 32 43 71 85 l71 77
-59 -5 c-32 -3 -200 -12 -373 -20 -1254 -61 -2331 -142 -2613 -198 -13 -2 -75
86 -121 173 -68 131 -116 309 -116 435 0 76 26 127 119 235 150 175 271 367
271 429 0 13 -35 78 -79 145 -336 518 -593 1150 -715 1756 -67 338 -91 617
-83 999 11 542 96 980 292 1496 107 282 196 462 409 835 197 343 207 361 319
585 237 473 400 938 466 1325 71 416 39 790 -89 1055 -39 81 -108 185 -124
185 -4 0 -31 -21 -60 -46 -251 -227 -530 -279 -811 -152 -144 66 -296 183
-409 317 -35 42 -97 135 -138 206 -187 324 -355 552 -558 755 -158 158 -260
236 -396 305 -127 63 -211 81 -312 67 -104 -15 -178 -43 -251 -97 -139 -103
-239 -289 -291 -545 -21 -104 -40 -308 -40 -430 l0 -78 -37 19 c-49 25 -128
25 -169 0 -39 -24 -81 -75 -115 -141 l-26 -51 -55 43 c-301 236 -482 516 -563
873 -21 93 -29 155 -33 276 -4 142 -2 167 22 284 86 410 288 735 596 962 128
94 199 135 339 198 266 119 548 186 899 211 59 4 92 10 92 18 0 6 -9 58 -20
115 -135 708 -110 1600 67 2370 23 101 33 127 90 220 252 414 487 1073 629
1766 31 149 74 393 74 417 0 16 -13 18 -147 18 -162 0 -436 20 -608 45 -678
96 -1258 345 -1566 673 -484 516 -671 1065 -516 1517 85 245 228 436 472 630
175 138 730 675 908 878 48 54 141 174 208 265 182 249 275 359 469 552 194
195 326 305 535 445 456 306 968 489 1530 546 169 17 555 14 720 -6 122 -14
326 -49 406 -70 25 -6 26 -5 33 47 11 83 44 181 95 282 255 500 1009 998 2141
1413 195 71 603 203 630 203 15 0 19 -24 31 -222 18 -289 19 -1045 1 -1263
-57 -700 -186 -1180 -407 -1521 -137 -211 -344 -367 -517 -390 -27 -4 -48 -8
-48 -10 0 -2 21 -36 48 -76 94 -144 193 -369 264 -598 108 -350 198 -855 224
-1260 7 -101 10 -113 89 -315 361 -919 1023 -2252 1868 -3760 515 -920 930
-1623 1129 -1912 417 -608 761 -1180 1033 -1718 66 -132 175 -334 241 -450
333 -578 642 -1219 881 -1825 378 -958 637 -1938 725 -2740 3 -23 6 -21 37 25
223 324 882 867 1915 1579 448 309 1093 897 1605 1466 788 873 1411 1893 1691
2765 40 124 157 603 211 858 263 1261 305 2330 125 3213 -138 678 -407 1225
-791 1610 -176 177 -327 281 -491 341 -1004 362 -1899 375 -2602 38 -120 -57
-250 -138 -345 -214 -131 -103 -343 -479 -445 -787 -94 -285 -126 -506 -119
-829 5 -243 21 -356 82 -597 68 -268 217 -615 342 -798 l23 -35 -87 -5 c-184
-11 -514 19 -725 66 -399 88 -805 266 -1143 502 -259 181 -597 499 -799 752
-176 222 -278 378 -418 645 -397 755 -608 1444 -700 2280 -21 189 -17 807 5
1020 64 592 203 1113 442 1652 148 332 399 734 636 1019 691 828 1691 1359
2967 1575 517 87 1075 121 1622 99z"/>
</g>
</svg>
